<mxfile host="app.diagrams.net" modified="2024-09-07T17:25:46.797Z" agent="Mozilla/5.0 (Windows NT 10.0; Win64; x64) AppleWebKit/537.36 (KHTML, like Gecko) Chrome/128.0.0.0 Safari/537.36" etag="XwjZhmzddUJB2nwi0AcD" version="24.1.0" type="device">
  <diagram id="C5RBs43oDa-KdzZeNtuy" name="Page-1">
    <mxGraphModel dx="2147" dy="1285" grid="1" gridSize="10" guides="1" tooltips="1" connect="1" arrows="1" fold="1" page="1" pageScale="1" pageWidth="827" pageHeight="1169" math="0" shadow="0">
      <root>
        <mxCell id="WIyWlLk6GJQsqaUBKTNV-0" />
        <mxCell id="WIyWlLk6GJQsqaUBKTNV-1" parent="WIyWlLk6GJQsqaUBKTNV-0" />
        <mxCell id="_sogP4vftVK7t71Qyxri-0" value="User" style="swimlane;fontStyle=1;align=center;verticalAlign=top;childLayout=stackLayout;horizontal=1;startSize=26;horizontalStack=0;resizeParent=1;resizeParentMax=0;resizeLast=0;collapsible=1;marginBottom=0;whiteSpace=wrap;html=1;" vertex="1" parent="WIyWlLk6GJQsqaUBKTNV-1">
          <mxGeometry x="210" y="290" width="160" height="178" as="geometry" />
        </mxCell>
        <mxCell id="_sogP4vftVK7t71Qyxri-1" value="firstName&lt;div&gt;lastName&lt;/div&gt;&lt;div&gt;jbmg&lt;/div&gt;&lt;div&gt;birthdate&lt;/div&gt;&lt;div&gt;role&lt;/div&gt;&lt;div&gt;email&lt;/div&gt;&lt;div&gt;password&lt;/div&gt;" style="text;strokeColor=none;fillColor=none;align=left;verticalAlign=top;spacingLeft=4;spacingRight=4;overflow=hidden;rotatable=0;points=[[0,0.5],[1,0.5]];portConstraint=eastwest;whiteSpace=wrap;html=1;" vertex="1" parent="_sogP4vftVK7t71Qyxri-0">
          <mxGeometry y="26" width="160" height="144" as="geometry" />
        </mxCell>
        <mxCell id="_sogP4vftVK7t71Qyxri-2" value="" style="line;strokeWidth=1;fillColor=none;align=left;verticalAlign=middle;spacingTop=-1;spacingLeft=3;spacingRight=3;rotatable=0;labelPosition=right;points=[];portConstraint=eastwest;strokeColor=inherit;" vertex="1" parent="_sogP4vftVK7t71Qyxri-0">
          <mxGeometry y="170" width="160" height="8" as="geometry" />
        </mxCell>
        <mxCell id="_sogP4vftVK7t71Qyxri-19" style="edgeStyle=orthogonalEdgeStyle;rounded=0;orthogonalLoop=1;jettySize=auto;html=1;" edge="1" parent="WIyWlLk6GJQsqaUBKTNV-1" source="_sogP4vftVK7t71Qyxri-10" target="_sogP4vftVK7t71Qyxri-1">
          <mxGeometry relative="1" as="geometry">
            <mxPoint x="290" y="480" as="targetPoint" />
            <Array as="points">
              <mxPoint x="250" y="656" />
            </Array>
          </mxGeometry>
        </mxCell>
        <mxCell id="_sogP4vftVK7t71Qyxri-10" value="Doctor" style="swimlane;fontStyle=0;childLayout=stackLayout;horizontal=1;startSize=26;fillColor=none;horizontalStack=0;resizeParent=1;resizeParentMax=0;resizeLast=0;collapsible=1;marginBottom=0;whiteSpace=wrap;html=1;" vertex="1" parent="WIyWlLk6GJQsqaUBKTNV-1">
          <mxGeometry x="60" y="630" width="140" height="52" as="geometry" />
        </mxCell>
        <mxCell id="_sogP4vftVK7t71Qyxri-11" value="+ field: type" style="text;strokeColor=none;fillColor=none;align=left;verticalAlign=top;spacingLeft=4;spacingRight=4;overflow=hidden;rotatable=0;points=[[0,0.5],[1,0.5]];portConstraint=eastwest;whiteSpace=wrap;html=1;" vertex="1" parent="_sogP4vftVK7t71Qyxri-10">
          <mxGeometry y="26" width="140" height="26" as="geometry" />
        </mxCell>
        <mxCell id="_sogP4vftVK7t71Qyxri-14" value="Specijalizacija" style="swimlane;fontStyle=0;childLayout=stackLayout;horizontal=1;startSize=26;fillColor=none;horizontalStack=0;resizeParent=1;resizeParentMax=0;resizeLast=0;collapsible=1;marginBottom=0;whiteSpace=wrap;html=1;" vertex="1" parent="WIyWlLk6GJQsqaUBKTNV-1">
          <mxGeometry x="-160" y="630" width="140" height="52" as="geometry" />
        </mxCell>
        <mxCell id="_sogP4vftVK7t71Qyxri-15" value="naziv" style="text;strokeColor=none;fillColor=none;align=left;verticalAlign=top;spacingLeft=4;spacingRight=4;overflow=hidden;rotatable=0;points=[[0,0.5],[1,0.5]];portConstraint=eastwest;whiteSpace=wrap;html=1;" vertex="1" parent="_sogP4vftVK7t71Qyxri-14">
          <mxGeometry y="26" width="140" height="26" as="geometry" />
        </mxCell>
        <mxCell id="_sogP4vftVK7t71Qyxri-18" value="" style="edgeStyle=orthogonalEdgeStyle;rounded=0;orthogonalLoop=1;jettySize=auto;html=1;" edge="1" parent="WIyWlLk6GJQsqaUBKTNV-1" source="_sogP4vftVK7t71Qyxri-14" target="_sogP4vftVK7t71Qyxri-10">
          <mxGeometry relative="1" as="geometry">
            <mxPoint x="70" y="605" as="targetPoint" />
          </mxGeometry>
        </mxCell>
        <mxCell id="_sogP4vftVK7t71Qyxri-24" style="edgeStyle=orthogonalEdgeStyle;rounded=0;orthogonalLoop=1;jettySize=auto;html=1;" edge="1" parent="WIyWlLk6GJQsqaUBKTNV-1" source="_sogP4vftVK7t71Qyxri-20" target="_sogP4vftVK7t71Qyxri-0">
          <mxGeometry relative="1" as="geometry">
            <Array as="points">
              <mxPoint x="440" y="549" />
              <mxPoint x="320" y="549" />
            </Array>
          </mxGeometry>
        </mxCell>
        <mxCell id="_sogP4vftVK7t71Qyxri-20" value="Patient" style="swimlane;fontStyle=0;childLayout=stackLayout;horizontal=1;startSize=26;fillColor=none;horizontalStack=0;resizeParent=1;resizeParentMax=0;resizeLast=0;collapsible=1;marginBottom=0;whiteSpace=wrap;html=1;" vertex="1" parent="WIyWlLk6GJQsqaUBKTNV-1">
          <mxGeometry x="370" y="630" width="140" height="52" as="geometry" />
        </mxCell>
        <mxCell id="_sogP4vftVK7t71Qyxri-21" value="+ field: type" style="text;strokeColor=none;fillColor=none;align=left;verticalAlign=top;spacingLeft=4;spacingRight=4;overflow=hidden;rotatable=0;points=[[0,0.5],[1,0.5]];portConstraint=eastwest;whiteSpace=wrap;html=1;" vertex="1" parent="_sogP4vftVK7t71Qyxri-20">
          <mxGeometry y="26" width="140" height="26" as="geometry" />
        </mxCell>
        <mxCell id="_sogP4vftVK7t71Qyxri-25" value="ZakazanTermin" style="swimlane;fontStyle=0;childLayout=stackLayout;horizontal=1;startSize=26;fillColor=none;horizontalStack=0;resizeParent=1;resizeParentMax=0;resizeLast=0;collapsible=1;marginBottom=0;whiteSpace=wrap;html=1;" vertex="1" parent="WIyWlLk6GJQsqaUBKTNV-1">
          <mxGeometry x="260" y="790" width="140" height="78" as="geometry" />
        </mxCell>
        <mxCell id="_sogP4vftVK7t71Qyxri-26" value="datumVremePocetka" style="text;strokeColor=none;fillColor=none;align=left;verticalAlign=top;spacingLeft=4;spacingRight=4;overflow=hidden;rotatable=0;points=[[0,0.5],[1,0.5]];portConstraint=eastwest;whiteSpace=wrap;html=1;" vertex="1" parent="_sogP4vftVK7t71Qyxri-25">
          <mxGeometry y="26" width="140" height="26" as="geometry" />
        </mxCell>
        <mxCell id="_sogP4vftVK7t71Qyxri-27" value="datumVremeKraja" style="text;strokeColor=none;fillColor=none;align=left;verticalAlign=top;spacingLeft=4;spacingRight=4;overflow=hidden;rotatable=0;points=[[0,0.5],[1,0.5]];portConstraint=eastwest;whiteSpace=wrap;html=1;" vertex="1" parent="_sogP4vftVK7t71Qyxri-25">
          <mxGeometry y="52" width="140" height="26" as="geometry" />
        </mxCell>
        <mxCell id="_sogP4vftVK7t71Qyxri-29" style="edgeStyle=orthogonalEdgeStyle;rounded=0;orthogonalLoop=1;jettySize=auto;html=1;" edge="1" parent="WIyWlLk6GJQsqaUBKTNV-1" source="_sogP4vftVK7t71Qyxri-11" target="_sogP4vftVK7t71Qyxri-25">
          <mxGeometry relative="1" as="geometry">
            <Array as="points">
              <mxPoint x="290" y="669" />
            </Array>
          </mxGeometry>
        </mxCell>
        <mxCell id="_sogP4vftVK7t71Qyxri-30" style="edgeStyle=orthogonalEdgeStyle;rounded=0;orthogonalLoop=1;jettySize=auto;html=1;" edge="1" parent="WIyWlLk6GJQsqaUBKTNV-1" source="_sogP4vftVK7t71Qyxri-21" target="_sogP4vftVK7t71Qyxri-25">
          <mxGeometry relative="1" as="geometry">
            <Array as="points">
              <mxPoint x="350" y="669" />
            </Array>
          </mxGeometry>
        </mxCell>
        <mxCell id="_sogP4vftVK7t71Qyxri-38" style="edgeStyle=orthogonalEdgeStyle;rounded=0;orthogonalLoop=1;jettySize=auto;html=1;" edge="1" parent="WIyWlLk6GJQsqaUBKTNV-1" source="_sogP4vftVK7t71Qyxri-33" target="_sogP4vftVK7t71Qyxri-25">
          <mxGeometry relative="1" as="geometry" />
        </mxCell>
        <mxCell id="_sogP4vftVK7t71Qyxri-66" style="edgeStyle=orthogonalEdgeStyle;rounded=0;orthogonalLoop=1;jettySize=auto;html=1;" edge="1" parent="WIyWlLk6GJQsqaUBKTNV-1" source="_sogP4vftVK7t71Qyxri-33" target="_sogP4vftVK7t71Qyxri-62">
          <mxGeometry relative="1" as="geometry" />
        </mxCell>
        <mxCell id="_sogP4vftVK7t71Qyxri-33" value="Pregled" style="swimlane;fontStyle=0;childLayout=stackLayout;horizontal=1;startSize=26;fillColor=none;horizontalStack=0;resizeParent=1;resizeParentMax=0;resizeLast=0;collapsible=1;marginBottom=0;whiteSpace=wrap;html=1;" vertex="1" parent="WIyWlLk6GJQsqaUBKTNV-1">
          <mxGeometry x="260" y="950" width="140" height="104" as="geometry" />
        </mxCell>
        <mxCell id="_sogP4vftVK7t71Qyxri-34" value="pocetak" style="text;strokeColor=none;fillColor=none;align=left;verticalAlign=top;spacingLeft=4;spacingRight=4;overflow=hidden;rotatable=0;points=[[0,0.5],[1,0.5]];portConstraint=eastwest;whiteSpace=wrap;html=1;" vertex="1" parent="_sogP4vftVK7t71Qyxri-33">
          <mxGeometry y="26" width="140" height="26" as="geometry" />
        </mxCell>
        <mxCell id="_sogP4vftVK7t71Qyxri-35" value="kraj" style="text;strokeColor=none;fillColor=none;align=left;verticalAlign=top;spacingLeft=4;spacingRight=4;overflow=hidden;rotatable=0;points=[[0,0.5],[1,0.5]];portConstraint=eastwest;whiteSpace=wrap;html=1;" vertex="1" parent="_sogP4vftVK7t71Qyxri-33">
          <mxGeometry y="52" width="140" height="26" as="geometry" />
        </mxCell>
        <mxCell id="_sogP4vftVK7t71Qyxri-44" value="anamneza" style="text;strokeColor=none;fillColor=none;align=left;verticalAlign=top;spacingLeft=4;spacingRight=4;overflow=hidden;rotatable=0;points=[[0,0.5],[1,0.5]];portConstraint=eastwest;whiteSpace=wrap;html=1;" vertex="1" parent="_sogP4vftVK7t71Qyxri-33">
          <mxGeometry y="78" width="140" height="26" as="geometry" />
        </mxCell>
        <mxCell id="_sogP4vftVK7t71Qyxri-59" value="" style="edgeStyle=orthogonalEdgeStyle;rounded=0;orthogonalLoop=1;jettySize=auto;html=1;" edge="1" parent="WIyWlLk6GJQsqaUBKTNV-1" source="_sogP4vftVK7t71Qyxri-45" target="_sogP4vftVK7t71Qyxri-57">
          <mxGeometry relative="1" as="geometry" />
        </mxCell>
        <mxCell id="_sogP4vftVK7t71Qyxri-45" value="Terapija" style="swimlane;fontStyle=0;childLayout=stackLayout;horizontal=1;startSize=26;fillColor=none;horizontalStack=0;resizeParent=1;resizeParentMax=0;resizeLast=0;collapsible=1;marginBottom=0;whiteSpace=wrap;html=1;" vertex="1" parent="WIyWlLk6GJQsqaUBKTNV-1">
          <mxGeometry x="50" y="976" width="140" height="52" as="geometry" />
        </mxCell>
        <mxCell id="_sogP4vftVK7t71Qyxri-46" value="opis" style="text;strokeColor=none;fillColor=none;align=left;verticalAlign=top;spacingLeft=4;spacingRight=4;overflow=hidden;rotatable=0;points=[[0,0.5],[1,0.5]];portConstraint=eastwest;whiteSpace=wrap;html=1;" vertex="1" parent="_sogP4vftVK7t71Qyxri-45">
          <mxGeometry y="26" width="140" height="26" as="geometry" />
        </mxCell>
        <mxCell id="_sogP4vftVK7t71Qyxri-60" value="" style="edgeStyle=orthogonalEdgeStyle;rounded=0;orthogonalLoop=1;jettySize=auto;html=1;" edge="1" parent="WIyWlLk6GJQsqaUBKTNV-1" source="_sogP4vftVK7t71Qyxri-49" target="_sogP4vftVK7t71Qyxri-57">
          <mxGeometry relative="1" as="geometry" />
        </mxCell>
        <mxCell id="_sogP4vftVK7t71Qyxri-49" value="Lek" style="swimlane;fontStyle=0;childLayout=stackLayout;horizontal=1;startSize=26;fillColor=none;horizontalStack=0;resizeParent=1;resizeParentMax=0;resizeLast=0;collapsible=1;marginBottom=0;whiteSpace=wrap;html=1;" vertex="1" parent="WIyWlLk6GJQsqaUBKTNV-1">
          <mxGeometry x="-340" y="960" width="90" height="104" as="geometry" />
        </mxCell>
        <mxCell id="_sogP4vftVK7t71Qyxri-50" value="naziv" style="text;strokeColor=none;fillColor=none;align=left;verticalAlign=top;spacingLeft=4;spacingRight=4;overflow=hidden;rotatable=0;points=[[0,0.5],[1,0.5]];portConstraint=eastwest;whiteSpace=wrap;html=1;" vertex="1" parent="_sogP4vftVK7t71Qyxri-49">
          <mxGeometry y="26" width="90" height="26" as="geometry" />
        </mxCell>
        <mxCell id="_sogP4vftVK7t71Qyxri-51" value="opis" style="text;strokeColor=none;fillColor=none;align=left;verticalAlign=top;spacingLeft=4;spacingRight=4;overflow=hidden;rotatable=0;points=[[0,0.5],[1,0.5]];portConstraint=eastwest;whiteSpace=wrap;html=1;" vertex="1" parent="_sogP4vftVK7t71Qyxri-49">
          <mxGeometry y="52" width="90" height="26" as="geometry" />
        </mxCell>
        <mxCell id="_sogP4vftVK7t71Qyxri-52" value="napomena" style="text;strokeColor=none;fillColor=none;align=left;verticalAlign=top;spacingLeft=4;spacingRight=4;overflow=hidden;rotatable=0;points=[[0,0.5],[1,0.5]];portConstraint=eastwest;whiteSpace=wrap;html=1;" vertex="1" parent="_sogP4vftVK7t71Qyxri-49">
          <mxGeometry y="78" width="90" height="26" as="geometry" />
        </mxCell>
        <mxCell id="_sogP4vftVK7t71Qyxri-53" value="Primena" style="swimlane;fontStyle=0;childLayout=stackLayout;horizontal=1;startSize=26;fillColor=none;horizontalStack=0;resizeParent=1;resizeParentMax=0;resizeLast=0;collapsible=1;marginBottom=0;whiteSpace=wrap;html=1;" vertex="1" parent="WIyWlLk6GJQsqaUBKTNV-1">
          <mxGeometry x="-170" y="976" width="140" height="78" as="geometry" />
        </mxCell>
        <mxCell id="_sogP4vftVK7t71Qyxri-54" value="nacinKoriscenja" style="text;strokeColor=none;fillColor=none;align=left;verticalAlign=top;spacingLeft=4;spacingRight=4;overflow=hidden;rotatable=0;points=[[0,0.5],[1,0.5]];portConstraint=eastwest;whiteSpace=wrap;html=1;" vertex="1" parent="_sogP4vftVK7t71Qyxri-53">
          <mxGeometry y="26" width="140" height="26" as="geometry" />
        </mxCell>
        <mxCell id="_sogP4vftVK7t71Qyxri-57" value="frekvencijaUCasovima" style="text;strokeColor=none;fillColor=none;align=left;verticalAlign=top;spacingLeft=4;spacingRight=4;overflow=hidden;rotatable=0;points=[[0,0.5],[1,0.5]];portConstraint=eastwest;whiteSpace=wrap;html=1;" vertex="1" parent="_sogP4vftVK7t71Qyxri-53">
          <mxGeometry y="52" width="140" height="26" as="geometry" />
        </mxCell>
        <mxCell id="_sogP4vftVK7t71Qyxri-61" value="" style="edgeStyle=orthogonalEdgeStyle;rounded=0;orthogonalLoop=1;jettySize=auto;html=1;" edge="1" parent="WIyWlLk6GJQsqaUBKTNV-1" source="_sogP4vftVK7t71Qyxri-46" target="_sogP4vftVK7t71Qyxri-44">
          <mxGeometry relative="1" as="geometry" />
        </mxCell>
        <mxCell id="_sogP4vftVK7t71Qyxri-62" value="Klasifikacija bolesti" style="swimlane;fontStyle=0;childLayout=stackLayout;horizontal=1;startSize=26;fillColor=none;horizontalStack=0;resizeParent=1;resizeParentMax=0;resizeLast=0;collapsible=1;marginBottom=0;whiteSpace=wrap;html=1;" vertex="1" parent="WIyWlLk6GJQsqaUBKTNV-1">
          <mxGeometry x="530" y="950" width="140" height="78" as="geometry" />
        </mxCell>
        <mxCell id="_sogP4vftVK7t71Qyxri-63" value="sifra" style="text;strokeColor=none;fillColor=none;align=left;verticalAlign=top;spacingLeft=4;spacingRight=4;overflow=hidden;rotatable=0;points=[[0,0.5],[1,0.5]];portConstraint=eastwest;whiteSpace=wrap;html=1;" vertex="1" parent="_sogP4vftVK7t71Qyxri-62">
          <mxGeometry y="26" width="140" height="26" as="geometry" />
        </mxCell>
        <mxCell id="_sogP4vftVK7t71Qyxri-64" value="opis" style="text;strokeColor=none;fillColor=none;align=left;verticalAlign=top;spacingLeft=4;spacingRight=4;overflow=hidden;rotatable=0;points=[[0,0.5],[1,0.5]];portConstraint=eastwest;whiteSpace=wrap;html=1;" vertex="1" parent="_sogP4vftVK7t71Qyxri-62">
          <mxGeometry y="52" width="140" height="26" as="geometry" />
        </mxCell>
      </root>
    </mxGraphModel>
  </diagram>
</mxfile>
